# xmcd
#
# Track frame offsets:
#	150
#	18739
#	32826
#	46611
#	58188
#	69618
#	81428
#	105424
#	115843
#	133181
#	144177
#	161154
#	174096
#	188436
#	200449
#	213763
#	224321
#	237358
#
# Disc length: 3321 seconds
#
# Revision: 0
# Processed by: cddbd v1.5.2PL0 Copyright (c) Steve Scherf et al.
# Submitted via: audiograbber 1.83.01
#
DISCID=f90cf712
DTITLE=Isaac Payton Sweat - King Of The Cotton Eyed Joe
DYEAR=1998
DGENRE=Country
TTITLE0=Isaac Payton Sweat - Mathilda
TTITLE1=Isaac Payton Sweat - National Chili Anthem
TTITLE2=Isaac Payton Sweat - I Could Never Pass A Honky Tonk
TTITLE3=Isaac Payton Sweat - Cotton Eyed Joe (Uncensored) (Line Dances)
TTITLE4=Isaac Payton Sweat - Sweat's Schottische (Line Dances)
TTITLE5=Isaac Payton Sweat - Shed So Many Tears
TTITLE6=Isaac Payton Sweat - Let's Do The Joe Bailey Roll
TTITLE7=Isaac Payton Sweat - Hot Corn, Cold Corn
TTITLE8=Isaac Payton Sweat - I'm Going To Kill You
TTITLE9=Isaac Payton Sweat - Rancho Grande
TTITLE10=Isaac Payton Sweat - Little Foot, Hokey Pokey, Bunny Hop Medley (Line 
TTITLE10=Dances)
TTITLE11=Isaac Payton Sweat - Meanwhile Back At The Ranch
TTITLE12=Isaac Payton Sweat - Allon Dancez (C'mon Let's Dance)
TTITLE13=Isaac Payton Sweat - Family
TTITLE14=Isaac Payton Sweat - You Still Know The Way To My Heart
TTITLE15=Isaac Payton Sweat - Say It's Not You
TTITLE16=Isaac Payton Sweat - A Hangover Sure Hangs On
TTITLE17=Isaac Payton Sweat - I Hate To Go Searching The Bars Again
EXTD=LABEL =M. I. L. Multimedia LLC\nID =mil3035\nUPC =795676-303523\nCOPYRI
EXTD=GHT =1997, 1998
EXTT0=
EXTT1=
EXTT2=
EXTT3=
EXTT4=
EXTT5=
EXTT6=
EXTT7=
EXTT8=
EXTT9=
EXTT10=
EXTT11=
EXTT12=
EXTT13=
EXTT14=
EXTT15=
EXTT16=
EXTT17=
PLAYORDER=
